<?xml version="1.0" encoding="UTF-8"?>
<svg version="1.1" xmlns="http://www.w3.org/2000/svg" width="128" height="128">
<path d="M0 0 C42.24 0 84.48 0 128 0 C128 42.24 128 84.48 128 128 C85.76 128 43.52 128 0 128 C0 85.76 0 43.52 0 0 Z " fill="#17181B" transform="translate(0,0)"/>
<path d="M0 0 C3.79049707 1.42749981 7.27122456 3.16236542 10.8125 5.125 C11.78832031 5.66382813 12.76414062 6.20265625 13.76953125 6.7578125 C14.50558594 7.16773438 15.24164063 7.57765625 16 8 C16 10.97 16 13.94 16 17 C14.515 17.495 14.515 17.495 13 18 C12.505 19.485 12.505 19.485 12 21 C13.98 21.495 13.98 21.495 16 22 C16 25.3 16 28.6 16 32 C14.02 31.34 12.04 30.68 10 30 C10.99 30.474375 11.98 30.94875 13 31.4375 C16 34 16 34 16.3984375 36.26953125 C16.37699635 38.53871994 16.26004526 40.74627444 16 43 C14.35 42.67 12.7 42.34 11 42 C11.825 42.28875 12.65 42.5775 13.5 42.875 C16 45 16 45 16.33203125 47.42578125 C16.31406576 49.9661018 16.21368825 52.46898139 16 55 C13.52460195 53.84059824 11.07384615 52.65075133 8.625 51.4375 C7.92632812 51.11458984 7.22765625 50.79167969 6.5078125 50.45898438 C1.455951 47.90876583 1.455951 47.90876583 0.07714844 45.16064453 C-0.4765625 43.22265625 -0.4765625 43.22265625 -1 40 C-2.65 40.99 -4.3 41.98 -6 43 C-5.67 43.33 -5.34 43.66 -5 44 C-4.92820036 45.51928038 -4.91607993 47.04167482 -4.9375 48.5625 C-4.94652344 49.38878906 -4.95554687 50.21507812 -4.96484375 51.06640625 C-4.97644531 51.70449219 -4.98804687 52.34257813 -5 53 C-6.65 52.34 -8.3 51.68 -10 51 C-10 51.66 -10 52.32 -10 53 C-8.35 53.66 -6.7 54.32 -5 55 C-5 57.97 -5 60.94 -5 64 C-6.98 63.505 -6.98 63.505 -9 63 C-9.33 64.65 -9.66 66.3 -10 68 C-13.54243452 66.63408831 -16.92627929 65.09068516 -20.3125 63.375 C-21.63701172 62.70597656 -21.63701172 62.70597656 -22.98828125 62.0234375 C-23.65214844 61.68570313 -24.31601563 61.34796875 -25 61 C-22.79016193 63.20983807 -19.65378681 64.52512946 -16.9375 66.0625 C-16.27427734 66.43955078 -15.61105469 66.81660156 -14.92773438 67.20507812 C-13.28597654 68.13816352 -11.64309282 69.06926742 -10 70 C-10 73.3 -10 76.6 -10 80 C-15.28 77.36 -20.56 74.72 -26 72 C-26 75.3 -26 78.6 -26 82 C-26.6297876 82.34256836 -27.2595752 82.68513672 -27.90844727 83.03808594 C-30.79354341 84.60796833 -33.6780257 86.17897536 -36.5625 87.75 C-37.55314453 88.28882812 -38.54378906 88.82765625 -39.56445312 89.3828125 C-40.53447266 89.91132812 -41.50449219 90.43984375 -42.50390625 90.984375 C-43.45281738 91.49806641 -44.40172852 92.01175781 -45.37939453 92.54101562 C-47.6057903 93.78052942 -49.74766507 95.09571832 -51.90234375 96.453125 C-55.51420993 98.25678075 -56.24160318 98.10647421 -60 97 C-62.07808447 96.0220779 -64.12320001 94.97261701 -66.140625 93.875 C-67.29304688 93.25109375 -68.44546875 92.6271875 -69.6328125 91.984375 C-70.22610352 91.65888672 -70.81939453 91.33339844 -71.43066406 90.99804688 C-73.25494231 89.99728876 -75.08395124 89.00566912 -76.9140625 88.015625 C-85.83666872 83.16333128 -85.83666872 83.16333128 -87 82 C-87.08855161 79.3337397 -87.11524673 76.69352886 -87.09765625 74.02734375 C-87.0962413 73.22970108 -87.09482635 72.43205841 -87.09336853 71.61024475 C-87.08775316 69.05262565 -87.07519812 66.49509282 -87.0625 63.9375 C-87.05748698 62.20768355 -87.05292373 60.47786574 -87.04882812 58.74804688 C-87.03777875 54.49866447 -87.02050386 50.24934688 -87 46 C-83.25124086 43.87327443 -79.49751601 41.75567742 -75.73901367 39.64624023 C-74.46223386 38.92800103 -73.18682185 38.20732452 -71.9128418 37.48413086 C-70.07698672 36.44254654 -68.23632351 35.40994723 -66.39453125 34.37890625 C-65.28956299 33.7557251 -64.18459473 33.13254395 -63.04614258 32.49047852 C-60.25871814 31.12659087 -58.06942988 30.33552883 -55 30 C-53.12109375 30.7421875 -53.12109375 30.7421875 -51.4375 31.875 C-48.9637178 33.44136864 -46.93764122 34.5299774 -44 35 C-44 33.02 -44 31.04 -44 29 C-42.68 28.67 -41.36 28.34 -40 28 C-40 27.34 -40 26.68 -40 26 C-39.360625 25.87625 -38.72125 25.7525 -38.0625 25.625 C-37.381875 25.41875 -36.70125 25.2125 -36 25 C-35.67 24.34 -35.34 23.68 -35 23 C-34.34 23 -33.68 23 -33 23 C-32.67 21.35 -32.34 19.7 -32 18 C-31.01 18.33 -30.02 18.66 -29 19 C-28.505 26.425 -28.505 26.425 -28 34 C-25.69 32.35 -23.38 30.7 -21 29 C-21.825 28.71125 -22.65 28.4225 -23.5 28.125 C-26 26 -26 26 -26.33203125 23.57421875 C-26.31406576 21.0338982 -26.21368825 18.53101861 -26 16 C-25.01 16 -24.02 16 -23 16 C-23.99 15.34 -24.98 14.68 -26 14 C-26.29296875 11.8359375 -26.29296875 11.8359375 -26.1875 9.375 C-26.14689453 8.14910156 -26.14689453 8.14910156 -26.10546875 6.8984375 C-26.07066406 6.27195312 -26.03585938 5.64546875 -26 5 C-22.27690287 6.41994033 -18.76896899 8.06864214 -15.25 9.9375 C-14.28578125 10.44152344 -13.3215625 10.94554687 -12.328125 11.46484375 C-10 13 -10 13 -9 16 C-3.45500555 12.19485908 -3.45500555 12.19485908 -0.24609375 6.53125 C-0.02651923 4.32853419 0.08022156 2.21110674 0 0 Z " fill="#77808A" transform="translate(96,20)"/>
<path d="M0 0 C3.79049707 1.42749981 7.27122456 3.16236542 10.8125 5.125 C11.78832031 5.66382813 12.76414062 6.20265625 13.76953125 6.7578125 C14.50558594 7.16773438 15.24164063 7.57765625 16 8 C16 10.97 16 13.94 16 17 C14.515 17.495 14.515 17.495 13 18 C12.505 19.485 12.505 19.485 12 21 C13.98 21.495 13.98 21.495 16 22 C16 25.3 16 28.6 16 32 C14.02 31.34 12.04 30.68 10 30 C10.99 30.474375 11.98 30.94875 13 31.4375 C16 34 16 34 16.3984375 36.26953125 C16.37699635 38.53871994 16.26004526 40.74627444 16 43 C14.35 42.67 12.7 42.34 11 42 C11.825 42.28875 12.65 42.5775 13.5 42.875 C16 45 16 45 16.33203125 47.42578125 C16.31406576 49.9661018 16.21368825 52.46898139 16 55 C13.52460195 53.84059824 11.07384615 52.65075133 8.625 51.4375 C7.92632812 51.11458984 7.22765625 50.79167969 6.5078125 50.45898438 C1.455951 47.90876583 1.455951 47.90876583 0.07714844 45.16064453 C-0.4765625 43.22265625 -0.4765625 43.22265625 -1 40 C-2.65 40.99 -4.3 41.98 -6 43 C-5.67 43.33 -5.34 43.66 -5 44 C-4.92820036 45.51928038 -4.91607993 47.04167482 -4.9375 48.5625 C-4.94652344 49.38878906 -4.95554687 50.21507812 -4.96484375 51.06640625 C-4.97644531 51.70449219 -4.98804687 52.34257813 -5 53 C-6.65 52.34 -8.3 51.68 -10 51 C-10 51.66 -10 52.32 -10 53 C-8.35 53.66 -6.7 54.32 -5 55 C-5 57.97 -5 60.94 -5 64 C-7.4375 63.1875 -7.4375 63.1875 -10 62 C-10.33 61.01 -10.66 60.02 -11 59 C-12.75906644 57.65501492 -12.75906644 57.65501492 -14.875 56.5 C-17.66110699 54.89618934 -19.76316317 53.29879907 -22 51 C-23.64605826 49.96642853 -25.30963442 48.95939668 -27 48 C-27.99 51.3 -28.98 54.6 -30 58 C-30.53625 57.319375 -31.0725 56.63875 -31.625 55.9375 C-33.83646522 53.70490652 -33.83646522 53.70490652 -36.6875 54.0625 C-40.28194167 55.07979481 -42.41367956 56.55279266 -45.40600586 58.69604492 C-53.55833818 64.35365236 -53.55833818 64.35365236 -58.28564453 63.66894531 C-63.30179083 61.93998031 -70.5556986 58.8886028 -73 54 C-72.34 54 -71.68 54 -71 54 C-70.6596875 53.13375 -70.6596875 53.13375 -70.3125 52.25 C-68.67083893 49.43572387 -66.56440947 47.97262267 -64 46 C-63.67 45.34 -63.34 44.68 -63 44 C-60.9609375 43.83203125 -60.9609375 43.83203125 -58.375 43.8125 C-52.95477568 43.42311607 -50.67849764 41.50279568 -47.1796875 37.49609375 C-46.79039063 37.00238281 -46.40109375 36.50867187 -46 36 C-44.515 36.495 -44.515 36.495 -43 37 C-43.061875 35.88625 -43.12375 34.7725 -43.1875 33.625 C-43.0946875 31.830625 -43.0946875 31.830625 -43 30 C-42.01 29.34 -41.02 28.68 -40 28 C-40 27.34 -40 26.68 -40 26 C-39.360625 25.87625 -38.72125 25.7525 -38.0625 25.625 C-37.381875 25.41875 -36.70125 25.2125 -36 25 C-35.67 24.34 -35.34 23.68 -35 23 C-34.34 23 -33.68 23 -33 23 C-32.67 21.35 -32.34 19.7 -32 18 C-31.01 18.33 -30.02 18.66 -29 19 C-28.505 26.425 -28.505 26.425 -28 34 C-25.69 32.35 -23.38 30.7 -21 29 C-21.825 28.71125 -22.65 28.4225 -23.5 28.125 C-26 26 -26 26 -26.33203125 23.57421875 C-26.31406576 21.0338982 -26.21368825 18.53101861 -26 16 C-25.01 16 -24.02 16 -23 16 C-23.99 15.34 -24.98 14.68 -26 14 C-26.29296875 11.8359375 -26.29296875 11.8359375 -26.1875 9.375 C-26.14689453 8.14910156 -26.14689453 8.14910156 -26.10546875 6.8984375 C-26.07066406 6.27195312 -26.03585938 5.64546875 -26 5 C-22.27690287 6.41994033 -18.76896899 8.06864214 -15.25 9.9375 C-14.28578125 10.44152344 -13.3215625 10.94554687 -12.328125 11.46484375 C-10 13 -10 13 -9 16 C-3.45500555 12.19485908 -3.45500555 12.19485908 -0.24609375 6.53125 C-0.02651923 4.32853419 0.08022156 2.21110674 0 0 Z " fill="#5A6266" transform="translate(96,20)"/>
<path d="M0 0 C3.79049707 1.42749981 7.27122456 3.16236542 10.8125 5.125 C11.78832031 5.66382813 12.76414063 6.20265625 13.76953125 6.7578125 C14.50558594 7.16773438 15.24164063 7.57765625 16 8 C16 10.97 16 13.94 16 17 C15.01 17.33 14.02 17.66 13 18 C12.505 19.485 12.505 19.485 12 21 C13.32 21.33 14.64 21.66 16 22 C16 25.3 16 28.6 16 32 C14.02 31.34 12.04 30.68 10 30 C10.99 30.474375 11.98 30.94875 13 31.4375 C16 34 16 34 16.3984375 36.26953125 C16.37699635 38.53871994 16.26004526 40.74627444 16 43 C14.35 42.67 12.7 42.34 11 42 C11.825 42.28875 12.65 42.5775 13.5 42.875 C16 45 16 45 16.33203125 47.42578125 C16.31406576 49.9661018 16.21368825 52.46898139 16 55 C13.52460195 53.84059824 11.07384615 52.65075133 8.625 51.4375 C7.92632812 51.11458984 7.22765625 50.79167969 6.5078125 50.45898438 C1.455951 47.90876583 1.455951 47.90876583 0.07714844 45.16064453 C-0.4765625 43.22265625 -0.4765625 43.22265625 -1 40 C-2.98 40.495 -2.98 40.495 -5 41 C-5.02578125 40.15695313 -5.0515625 39.31390625 -5.078125 38.4453125 C-5.13484375 37.34960938 -5.1915625 36.25390625 -5.25 35.125 C-5.29640625 34.03445312 -5.3428125 32.94390625 -5.390625 31.8203125 C-5.59171875 30.88960937 -5.7928125 29.95890625 -6 29 C-7.83514023 27.72821205 -7.83514023 27.72821205 -10 27 C-10.48210937 26.5153125 -10.96421875 26.030625 -11.4609375 25.53125 C-13.9132772 23.09135872 -16.97440621 21.82845512 -20.0390625 20.28125 C-22 19 -22 19 -23 16 C-23.99 15.34 -24.98 14.68 -26 14 C-26.29296875 11.8359375 -26.29296875 11.8359375 -26.1875 9.375 C-26.16042969 8.55773438 -26.13335937 7.74046875 -26.10546875 6.8984375 C-26.07066406 6.27195312 -26.03585938 5.64546875 -26 5 C-22.27690287 6.41994033 -18.76896899 8.06864214 -15.25 9.9375 C-14.28578125 10.44152344 -13.3215625 10.94554687 -12.328125 11.46484375 C-10 13 -10 13 -9 16 C-3.45500555 12.19485908 -3.45500555 12.19485908 -0.24609375 6.53125 C-0.02651923 4.32853419 0.08022156 2.21110674 0 0 Z " fill="#222428" transform="translate(96,20)"/>
<path d="M0 0 C4.3282077 1.31157809 7.01736632 3.58139305 10.28515625 6.5703125 C12.07212984 8.19158139 12.07212984 8.19158139 14.9375 9.3125 C17 11 17 11 17.3046875 13.1796875 C17.3118387 15.47522216 17.21553092 17.71537225 17 20 C13.45756548 18.63408831 10.07372071 17.09068516 6.6875 15.375 C5.80449219 14.92898437 4.92148438 14.48296875 4.01171875 14.0234375 C3.34785156 13.68570313 2.68398437 13.34796875 2 13 C4.20983807 15.20983807 7.34621319 16.52512946 10.0625 18.0625 C10.72572266 18.43955078 11.38894531 18.81660156 12.07226562 19.20507812 C13.71402346 20.13816352 15.35690718 21.06926742 17 22 C17 25.3 17 28.6 17 32 C11.72 29.36 6.44 26.72 1 24 C1 27.3 1 30.6 1 34 C-1.3110361 35.33592797 -3.62371755 36.66884431 -5.9375 38 C-6.59685547 38.3815625 -7.25621094 38.763125 -7.93554688 39.15625 C-12.88671875 42 -12.88671875 42 -14 42 C-14 37.38 -14 32.76 -14 28 C-14.91523437 28.5053125 -15.83046875 29.010625 -16.7734375 29.53125 C-17.97383845 30.18771927 -19.17436587 30.8439573 -20.375 31.5 C-20.97828125 31.83386719 -21.5815625 32.16773438 -22.203125 32.51171875 C-26.7734375 35 -26.7734375 35 -29 35 C-29 30.71 -29 26.42 -29 22 C-25.04 21.505 -25.04 21.505 -21 21 C-21 20.01 -21 19.02 -21 18 C-19.35 17.34 -17.7 16.68 -16 16 C-16 17.98 -16 19.96 -16 22 C-15.195625 22.2475 -14.39125 22.495 -13.5625 22.75 C-12.716875 23.1625 -11.87125 23.575 -11 24 C-10.82984375 24.94359375 -10.82984375 24.94359375 -10.65625 25.90625 C-10.17084486 28.23415965 -10.17084486 28.23415965 -7.71484375 29.484375 C-6.79832031 29.90203125 -5.88179687 30.3196875 -4.9375 30.75 C-3.308125 31.4925 -1.67875 32.235 0 33 C0 28.71 0 24.42 0 20 C-1.65 19.67 -3.3 19.34 -5 19 C-6.77639111 18.26947229 -8.52793442 17.47572102 -10.25 16.625 C-11.12140625 16.20476562 -11.9928125 15.78453125 -12.890625 15.3515625 C-15 14 -15 14 -16 11 C-14.35 10.67 -12.7 10.34 -11 10 C-10.67 8.35 -10.34 6.7 -10 5 C-5.25 5.75 -5.25 5.75 -3 8 C-2.690625 7.05125 -2.38125 6.1025 -2.0625 5.125 C-1 2 -1 2 0 0 Z " fill="#4F5158" transform="translate(69,68)"/>
<path d="M0 0 C5.33989586 1.50612447 11.98177802 3.98177802 16 8 C16.61227636 15.3590909 16.09440988 21.29544527 13 28 C12.46375 27.319375 11.9275 26.63875 11.375 25.9375 C9.16353478 23.70490652 9.16353478 23.70490652 6.3125 24.0625 C2.71805833 25.07979481 0.58632044 26.55279266 -2.40600586 28.69604492 C-10.55833818 34.35365236 -10.55833818 34.35365236 -15.28564453 33.66894531 C-20.30179083 31.93998031 -27.5556986 28.8886028 -30 24 C-29.34 24 -28.68 24 -28 24 C-27.6596875 23.13375 -27.6596875 23.13375 -27.3125 22.25 C-25.67083893 19.43572387 -23.56440947 17.97262267 -21 16 C-20.67 15.34 -20.34 14.68 -20 14 C-17.9609375 13.83203125 -17.9609375 13.83203125 -15.375 13.8125 C-9.95477568 13.42311607 -7.67849764 11.50279568 -4.1796875 7.49609375 C-3.79039063 7.00238281 -3.40109375 6.50867187 -3 6 C-2.01 6.33 -1.02 6.66 0 7 C0 4.69 0 2.38 0 0 Z " fill="#D7BCD6" transform="translate(53,50)"/>
<path d="M0 0 C0.33 0.66 0.66 1.32 1 2 C1.9075 2.268125 2.815 2.53625 3.75 2.8125 C7.63760833 4.23297228 9.38919211 5.80901258 12 9 C13.3125 12.3125 13.3125 12.3125 14 15 C14.66 15 15.32 15 16 15 C16 17.31 16 19.62 16 22 C17.010625 21.938125 18.02125 21.87625 19.0625 21.8125 C23.55499372 22.02642827 26.01085961 23.04613532 30 25 C30 28.96 30 32.92 30 37 C24.48316659 35.44397006 19.94035877 32.84444899 15 30 C15 34.62 15 39.24 15 44 C12.68628057 42.85657478 10.37400323 41.71038936 8.0625 40.5625 C7.40314453 40.23701172 6.74378906 39.91152344 6.06445312 39.57617188 C1.11328125 37.11328125 1.11328125 37.11328125 0 36 C-0.08855161 33.3337397 -0.11524673 30.69352886 -0.09765625 28.02734375 C-0.0962413 27.22970108 -0.09482635 26.43205841 -0.09336853 25.61024475 C-0.08775316 23.05262565 -0.07519812 20.49509282 -0.0625 17.9375 C-0.05748698 16.20768355 -0.05292373 14.47786574 -0.04882812 12.74804688 C-0.03777875 8.49866447 -0.02050386 4.24934688 0 0 Z " fill="#585C64" transform="translate(9,66)"/>
<path d="M0 0 C7.92 3.96 7.92 3.96 16 8 C16 11.3 16 14.6 16 18 C14.02 17.34 12.04 16.68 10 16 C10.99 16.474375 11.98 16.94875 13 17.4375 C16 20 16 20 16.3984375 22.26953125 C16.37699635 24.53871994 16.26004526 26.74627444 16 29 C14.35 28.67 12.7 28.34 11 28 C12.2375 28.433125 12.2375 28.433125 13.5 28.875 C16 31 16 31 16.33203125 33.42578125 C16.31406576 35.9661018 16.21368825 38.46898139 16 41 C13.51965551 39.68968564 11.0406965 38.37686532 8.5625 37.0625 C7.85544922 36.68931641 7.14839844 36.31613281 6.41992188 35.93164062 C1.11328125 33.11328125 1.11328125 33.11328125 0 32 C-0.07179964 30.48071962 -0.08392007 28.95832518 -0.0625 27.4375 C-0.05347656 26.61121094 -0.04445313 25.78492187 -0.03515625 24.93359375 C-0.02355469 24.29550781 -0.01195313 23.65742187 0 23 C0.66 22.67 1.32 22.34 2 22 C1.34 21.67 0.68 21.34 0 21 C0 14 0 7 0 0 Z " fill="#2B2C2E" transform="translate(96,34)"/>
<path d="M0 0 C0.33 0.99 0.66 1.98 1 3 C-0.63412443 4.70840281 -1.86906094 5.93453047 -4 7 C-4 7.66 -4 8.32 -4 9 C-3.484375 9.0825 -2.96875 9.165 -2.4375 9.25 C0.42108534 10.12956472 2.68482813 11.49607557 5.21875 13.0625 C7.28263559 14.23868705 7.28263559 14.23868705 11 15 C11 19.29 11 23.58 11 28 C6.07402818 26.35800939 2.98495629 25.13103709 -1 22 C-1 21.01 -1 20.02 -1 19 C-1.639375 18.773125 -2.27875 18.54625 -2.9375 18.3125 C-5 17 -5 17 -5.75 14.375 C-5.8325 13.59125 -5.915 12.8075 -6 12 C-6.845625 12.474375 -7.69125 12.94875 -8.5625 13.4375 C-12.12587329 15.05721513 -15.12561425 15.61256143 -19 16 C-19 15.34 -19 14.68 -19 14 C-19.721875 13.9175 -20.44375 13.835 -21.1875 13.75 C-24.65933017 12.82417862 -26.43193768 11.49865523 -29 9 C-29.71386394 7.35299651 -30.38812302 5.68755112 -31 4 C-30.27039063 4.54914063 -29.54078125 5.09828125 -28.7890625 5.6640625 C-23.72361498 8.80894268 -23.72361498 8.80894268 -18 10 C-11.40749679 8.07048686 -5.5785039 3.9086259 0 0 Z " fill="#B99B83" transform="translate(58,73)"/>
<path d="M0 0 C5.03245574 1.38392533 10.32374851 3.15914024 14 7 C14.67752518 10.10619235 14.49026762 12.87454391 14 16 C12.35 15.34 10.7 14.68 9 14 C9 14.66 9 15.32 9 16 C10.65 16.66 12.3 17.32 14 18 C14 20.97 14 23.94 14 27 C11.5625 26.1875 11.5625 26.1875 9 25 C8.67 24.01 8.34 23.02 8 22 C6.24093356 20.65501492 6.24093356 20.65501492 4.125 19.5 C1.34020338 17.89694364 -0.76160974 16.2954597 -3 14 C-3.721875 13.62875 -4.44375 13.2575 -5.1875 12.875 C-7.47439549 10.50924605 -7.25503643 9.53077682 -7.25 6.3125 C-7.18576167 4.8740202 -7.10836453 3.43583001 -7 2 C-3.535 3.485 -3.535 3.485 0 5 C0 3.35 0 1.7 0 0 Z " fill="#E8A74B" transform="translate(77,57)"/>
<path d="M0 0 C12.29685206 3.96672647 12.29685206 3.96672647 16 8 C16.87132781 12.77105108 16.5912236 17.20451965 16 22 C3.70314794 18.03327353 3.70314794 18.03327353 0 14 C-0.87132781 9.22894892 -0.5912236 4.79548035 0 0 Z " fill="#AEB3BA" transform="translate(24,96)"/>
<path d="M0 0 C1.93904966 0.97764934 3.85490842 2.00215114 5.75 3.0625 C6.73484375 3.61035156 7.7196875 4.15820312 8.734375 4.72265625 C9.48203125 5.14417969 10.2296875 5.56570312 11 6 C6.91097751 10.27446568 2.98905614 13.96877179 -3 15 C-7.82058049 13.30987365 -11.7778612 10.89196654 -16 8 C-14.54249246 4.17608977 -12.75128879 2.96836289 -9.125 1.1875 C-8.26132812 0.74792969 -7.39765625 0.30835937 -6.5078125 -0.14453125 C-3.64842388 -1.11993017 -2.75942343 -1.12068538 0 0 Z " fill="#FBFCFC" transform="translate(42,69)"/>
<path d="M0 0 C0 4.62 0 9.24 0 14 C-2.3110361 15.33592797 -4.62371755 16.66884431 -6.9375 18 C-7.59685547 18.3815625 -8.25621094 18.763125 -8.93554688 19.15625 C-13.88671875 22 -13.88671875 22 -15 22 C-15 17.38 -15 12.76 -15 8 C-15.66 7.67 -16.32 7.34 -17 7 C-16.01 6.5875 -15.02 6.175 -14 5.75 C-10.47758348 4.25064144 -7.08839243 2.54734927 -3.69921875 0.76953125 C-2 0 -2 0 0 0 Z " fill="#80868E" transform="translate(55,96)"/>
<path d="M0 0 C0.66 0.33 1.32 0.66 2 1 C1.67 3.31 1.34 5.62 1 8 C0.443125 8.061875 -0.11375 8.12375 -0.6875 8.1875 C-3.94987173 9.33373872 -5.68667874 11.49390197 -8 14 C-8.78375 13.67 -9.5675 13.34 -10.375 13 C-12.84332497 11.88133489 -12.84332497 11.88133489 -15 12 C-15.33 11.34 -15.66 10.68 -16 10 C-17.1446875 10.2784375 -17.1446875 10.2784375 -18.3125 10.5625 C-21 11 -21 11 -24 10 C-24 10.66 -24 11.32 -24 12 C-25.9375 11.625 -25.9375 11.625 -28 11 C-28.33 10.34 -28.66 9.68 -29 9 C-26.59087645 7.63063499 -24.17425815 6.27958007 -21.75 4.9375 C-21.06808594 4.54755859 -20.38617188 4.15761719 -19.68359375 3.75585938 C-19.01972656 3.39169922 -18.35585938 3.02753906 -17.671875 2.65234375 C-17.0644043 2.31195068 -16.45693359 1.97155762 -15.83105469 1.62084961 C-12.03990626 0.33539755 -8.27761194 2.62360566 -4.75 4.0625 C-3.85796875 4.42472656 -2.9659375 4.78695312 -2.046875 5.16015625 C-1.03367187 5.57587891 -1.03367187 5.57587891 0 6 C0 4.02 0 2.04 0 0 Z " fill="#595E66" transform="translate(52,49)"/>
<path d="M0 0 C0.87398437 0.58394531 0.87398437 0.58394531 1.765625 1.1796875 C3.085625 1.1796875 4.405625 1.1796875 5.765625 1.1796875 C6.755625 1.1796875 7.745625 1.1796875 8.765625 1.1796875 C8.765625 0.5196875 8.765625 -0.1403125 8.765625 -0.8203125 C13.16676897 -0.31732462 15.47757519 1.26741481 18.765625 4.1796875 C17.33105172 5.1631371 15.89285094 6.14129671 14.453125 7.1171875 C13.65261719 7.66246094 12.85210937 8.20773438 12.02734375 8.76953125 C9.765625 10.1796875 9.765625 10.1796875 6.765625 11.1796875 C3.64318678 9.50727045 0.74032641 7.58174857 -2.2265625 5.6484375 C-5.08528605 3.94305135 -5.08528605 3.94305135 -7.94921875 4.36328125 C-10.61723846 5.3164712 -12.83341479 6.68719872 -15.234375 8.1796875 C-15.894375 8.1796875 -16.554375 8.1796875 -17.234375 8.1796875 C-17.234375 7.1896875 -17.234375 6.1996875 -17.234375 5.1796875 C-14.8246231 4.11867734 -12.40887646 3.08095522 -9.984375 2.0546875 C-9.30246094 1.75175781 -8.62054688 1.44882813 -7.91796875 1.13671875 C-2.76423306 -1.01484081 -2.76423306 -1.01484081 0 0 Z " fill="#DADFE2" transform="translate(46.234375,64.8203125)"/>
<path d="M0 0 C0.66 0 1.32 0 2 0 C2 2.31 2 4.62 2 7 C3.010625 6.938125 4.02125 6.87625 5.0625 6.8125 C9.55499372 7.02642827 12.01085961 8.04613532 16 10 C16 13.96 16 17.92 16 22 C13.625 21.375 13.625 21.375 10 20 C9.13375 19.67773438 8.2675 19.35546875 7.375 19.0234375 C4.32697459 17.61199391 2.28118378 16.48454512 0 14 C-0.87132781 9.22894892 -0.5912236 4.79548035 0 0 Z " fill="#4A515A" transform="translate(23,81)"/>
<path d="M0 0 C0.33 0.99 0.66 1.98 1 3 C-0.63412443 4.70840281 -1.86906094 5.93453047 -4 7 C-4.2475 7.78375 -4.495 8.5675 -4.75 9.375 C-6.47971525 13.00740202 -8.28242826 13.59714274 -12 15 C-15.875 15.6875 -15.875 15.6875 -19 16 C-19 15.34 -19 14.68 -19 14 C-19.721875 13.9175 -20.44375 13.835 -21.1875 13.75 C-24.65933017 12.82417862 -26.43193768 11.49865523 -29 9 C-29.71386394 7.35299651 -30.38812302 5.68755112 -31 4 C-30.27039063 4.54914063 -29.54078125 5.09828125 -28.7890625 5.6640625 C-23.72361498 8.80894268 -23.72361498 8.80894268 -18 10 C-11.40749679 8.07048686 -5.5785039 3.9086259 0 0 Z " fill="#788491" transform="translate(58,73)"/>
<path d="M0 0 C3.79049707 1.42749981 7.27122456 3.16236542 10.8125 5.125 C12.27623047 5.93324219 12.27623047 5.93324219 13.76953125 6.7578125 C14.50558594 7.16773438 15.24164063 7.57765625 16 8 C16 11.3 16 14.6 16 18 C14.08085447 17.06758496 12.16477614 16.12885525 10.25 15.1875 C9.18265625 14.66542969 8.1153125 14.14335938 7.015625 13.60546875 C1.94133333 10.904 1.94133333 10.904 0 9 C-0.390625 6.73828125 -0.390625 6.73828125 -0.25 4.3125 C-0.21390625 3.50425781 -0.1778125 2.69601563 -0.140625 1.86328125 C-0.09421875 1.24839844 -0.0478125 0.63351563 0 0 Z " fill="#1FCBC4" transform="translate(70,25)"/>
<path d="M0 0 C3.79049707 1.42749981 7.27122456 3.16236542 10.8125 5.125 C12.27623047 5.93324219 12.27623047 5.93324219 13.76953125 6.7578125 C14.50558594 7.16773437 15.24164063 7.57765625 16 8 C16 11.3 16 14.6 16 18 C13.70583427 16.87987208 11.41470906 15.75417159 9.125 14.625 C8.47402344 14.30789062 7.82304688 13.99078125 7.15234375 13.6640625 C4.41822959 12.31109879 2.17227482 11.17227482 0 9 C-0.1953125 6.8359375 -0.1953125 6.8359375 -0.125 4.375 C-0.10695313 3.55773437 -0.08890625 2.74046875 -0.0703125 1.8984375 C-0.04710938 1.27195312 -0.02390625 0.64546875 0 0 Z " fill="#D443A3" transform="translate(70,82)"/>
<path d="M0 0 C0.33 0 0.66 0 1 0 C1 5.94 1 11.88 1 18 C-3.04400099 17.1911998 -5.65198014 16.4024649 -9.25 14.625 C-10.12140625 14.20476562 -10.9928125 13.78453125 -11.890625 13.3515625 C-14 12 -14 12 -15 9 C-13.35 8.67 -11.7 8.34 -10 8 C-9.67 6.35 -9.34 4.7 -9 3 C-4.25 3.75 -4.25 3.75 -2 6 C-1.34 4.02 -0.68 2.04 0 0 Z " fill="#737A85" transform="translate(68,70)"/>
<path d="M0 0 C7.92 3.96 7.92 3.96 16 8 C16 11.3 16 14.6 16 18 C10.72 15.36 5.44 12.72 0 10 C0 6.7 0 3.4 0 0 Z " fill="#E09C3E" transform="translate(96,34)"/>
<path d="M0 0 C5.76649206 1.51749791 11.58840606 3.92184049 16 8 C16.84496969 11.15833182 16.63697133 13.81514334 16 17 C12.48789667 15.64190249 9.11565705 14.12536693 5.75 12.4375 C4.87859375 12.00308594 4.0071875 11.56867188 3.109375 11.12109375 C1 10 1 10 0 9 C-0.07179964 7.48071962 -0.08392007 5.95832518 -0.0625 4.4375 C-0.05347656 3.61121094 -0.04445313 2.78492187 -0.03515625 1.93359375 C-0.02355469 1.29550781 -0.01195313 0.65742187 0 0 Z " fill="#29C4BE" transform="translate(70,71)"/>
<path d="M0 0 C1.89957501 0.90888756 3.79450786 1.82748031 5.6875 2.75 C7.27111328 3.51570312 7.27111328 3.51570312 8.88671875 4.296875 C11.95929822 5.97773403 14.50268603 7.53995937 17 10 C17.3671739 12.91610574 16.63295417 15.07867306 16 18 C12.20950293 16.57250019 8.72877544 14.83763458 5.1875 12.875 C3.72376953 12.06675781 3.72376953 12.06675781 2.23046875 11.2421875 C1.49441406 10.83226562 0.75835937 10.42234375 0 10 C0 6.7 0 3.4 0 0 Z " fill="#12C3BA" transform="translate(96,8)"/>
<path d="M0 0 C3.79049707 1.42749981 7.27122456 3.16236542 10.8125 5.125 C12.27623047 5.93324219 12.27623047 5.93324219 13.76953125 6.7578125 C14.50558594 7.16773438 15.24164063 7.57765625 16 8 C16 10.97 16 13.94 16 17 C10.23350794 15.48250209 4.41159394 13.07815951 0 9 C-0.84496969 5.84166818 -0.63697133 3.18485666 0 0 Z " fill="#DF3CA6" transform="translate(96,20)"/>
<path d="M0 0 C3.79049707 1.42749981 7.27122456 3.16236542 10.8125 5.125 C12.27623047 5.93324219 12.27623047 5.93324219 13.76953125 6.7578125 C14.50558594 7.16773437 15.24164063 7.57765625 16 8 C16 11.3 16 14.6 16 18 C13.51965551 16.68968564 11.0406965 15.37686532 8.5625 14.0625 C7.85544922 13.68931641 7.14839844 13.31613281 6.41992188 12.93164062 C1.11328125 10.11328125 1.11328125 10.11328125 0 9 C-0.07179964 7.48071962 -0.08392007 5.95832518 -0.0625 4.4375 C-0.05347656 3.61121094 -0.04445313 2.78492188 -0.03515625 1.93359375 C-0.02355469 1.29550781 -0.01195313 0.65742187 0 0 Z " fill="#DA9133" transform="translate(96,57)"/>
<path d="M0 0 C1.72990025 0.93614567 3.45888696 1.87397958 5.1875 2.8125 C6.15042969 3.33457031 7.11335938 3.85664062 8.10546875 4.39453125 C9.06066406 4.92433594 10.01585938 5.45414063 11 6 C12.40765625 6.69609375 12.40765625 6.69609375 13.84375 7.40625 C16 9 16 9 16.48828125 11.26171875 C16.43027344 12.06222656 16.37226562 12.86273438 16.3125 13.6875 C16.24482422 14.89986328 16.24482422 14.89986328 16.17578125 16.13671875 C16.11777344 16.75160156 16.05976562 17.36648437 16 18 C12.20950293 16.57250019 8.72877544 14.83763458 5.1875 12.875 C3.72376953 12.06675781 3.72376953 12.06675781 2.23046875 11.2421875 C1.49441406 10.83226562 0.75835937 10.42234375 0 10 C0 6.7 0 3.4 0 0 Z " fill="#E27FCF" transform="translate(70,36)"/>
<path d="M0 0 C1.31602523 0.61754259 2.62773556 1.24428742 3.9375 1.875 C5.03384766 2.39707031 5.03384766 2.39707031 6.15234375 2.9296875 C8 4 8 4 9 6 C6.83125748 5.49396008 5.00032373 5.00016187 3 4 C3 5.98 3 7.96 3 10 C1.02 10.99 1.02 10.99 -1 12 C-1.99 11.01 -2.98 10.02 -4 9 C-5.58468677 9.45363171 -7.16769924 9.91311452 -8.75 10.375 C-9.63171875 10.63023438 -10.5134375 10.88546875 -11.421875 11.1484375 C-13.97862332 11.91878431 -13.97862332 11.91878431 -16.140625 13.1015625 C-18 14 -18 14 -21 14 C-21.0825 14.61875 -21.165 15.2375 -21.25 15.875 C-22 18 -22 18 -24.0625 19.25 C-24.701875 19.4975 -25.34125 19.745 -26 20 C-26.33 19.34 -26.66 18.68 -27 18 C-26.34 18 -25.68 18 -25 18 C-24.6596875 17.13375 -24.6596875 17.13375 -24.3125 16.25 C-22.67083893 13.43572387 -20.56440947 11.97262267 -18 10 C-17.67 9.34 -17.34 8.68 -17 8 C-14.9609375 7.83203125 -14.9609375 7.83203125 -12.375 7.8125 C-6.95477568 7.42311607 -4.67849764 5.50279568 -1.1796875 1.49609375 C-0.79039063 1.00238281 -0.40109375 0.50867187 0 0 Z " fill="#99A0A9" transform="translate(50,56)"/>
<path d="M0 0 C5.14948331 2.10660681 7.08784335 4.34054936 10 9 C13.21325252 11.9022926 16.6376256 14.11437939 21.09765625 13.8984375 C23.07277155 13.6545961 25.0378735 13.33256381 27 13 C27 13.66 27 14.32 27 15 C24.36 15.33 21.72 15.66 19 16 C19 20.29 19 24.58 19 29 C18.67 29 18.34 29 18 29 C18 25.04 18 21.08 18 17 C16.35 16.67 14.7 16.34 13 16 C11.3948351 15.65038539 9.790613 15.29640589 8.1875 14.9375 C7.39730469 14.76089844 6.60710938 14.58429688 5.79296875 14.40234375 C5.20128906 14.26957031 4.60960937 14.13679688 4 14 C4 11.69 4 9.38 4 7 C3.34 7 2.68 7 2 7 C0.3125 5.1875 0.3125 5.1875 -1 3 C-0.67 2.01 -0.34 1.02 0 0 Z " fill="#6E7985" transform="translate(21,74)"/>
<path d="M0 0 C-0.33 4.62 -0.66 9.24 -1 14 C-5.62 11.69 -10.24 9.38 -15 7 C-14 4 -14 4 -11.85546875 2.578125 C-10.97503906 2.13984375 -10.09460938 1.7015625 -9.1875 1.25 C-8.31480469 0.80140625 -7.44210938 0.3528125 -6.54296875 -0.109375 C-4 -1 -4 -1 0 0 Z " fill="#785D7C" transform="translate(25,96)"/>
<path d="M0 0 C4.43090471 1.20842856 6.98112756 2.51668565 10 6 C9 7 9 7 6.4375 7.0625 C5.2309375 7.0315625 5.2309375 7.0315625 4 7 C4 8.32 4 9.64 4 11 C4.66 11 5.32 11 6 11 C5.67 11.66 5.34 12.32 5 13 C3 13 3 13 1.375 11.5 C0.92125 11.005 0.4675 10.51 0 10 C-0.33 10.66 -0.66 11.32 -1 12 C-2.98 11.34 -4.96 10.68 -7 10 C-7 7.36 -7 4.72 -7 2 C-3.535 3.485 -3.535 3.485 0 5 C0 3.35 0 1.7 0 0 Z " fill="#ECC38E" transform="translate(77,57)"/>
<path d="M0 0 C2.475 0.99 2.475 0.99 5 2 C5 6.29 5 10.58 5 15 C1.47107553 13.58843021 -1.54862203 12.22615467 -4.8125 10.375 C-5.60269531 9.92898437 -6.39289063 9.48296875 -7.20703125 9.0234375 C-7.79871094 8.68570313 -8.39039062 8.34796875 -9 8 C-9 6.35 -9 4.7 -9 3 C-5.59687262 4.05875074 -2.98646769 5.00902154 0 7 C0 4.69 0 2.38 0 0 Z " fill="#21CDC6" transform="translate(86,47)"/>
<path d="M0 0 C-1 2.875 -1 2.875 -3 6 C-5.00129084 6.85769608 -6.86580598 7.24838347 -9.0078125 7.625 C-11.18719245 7.95332492 -11.18719245 7.95332492 -13.75 9.25 C-16 10 -16 10 -18.3125 9.125 C-18.869375 8.75375 -19.42625 8.3825 -20 8 C-18.46969656 3.40908967 -15.08125271 2.3562188 -10.9453125 0.1640625 C-6.74751267 -1.49501489 -4.30531497 -1.13725301 0 0 Z " fill="#899097" transform="translate(30,60)"/>
<path d="M0 0 C2.26171875 0.4609375 2.26171875 0.4609375 4.6875 1.375 C5.49574219 1.67148438 6.30398437 1.96796875 7.13671875 2.2734375 C7.75160156 2.51320313 8.36648437 2.75296875 9 3 C4.97806144 6.50297874 -1.39433144 12 -7 12 C-7.25 8.6875 -7.25 8.6875 -7 5 C-5.1875 3.1875 -5.1875 3.1875 -3 2 C-2.01 1.34 -1.02 0.68 0 0 Z " fill="#41464E" transform="translate(47,91)"/>
<path d="M0 0 C0.33 0 0.66 0 1 0 C1.02688151 1.64574566 1.04634123 3.29161413 1.0625 4.9375 C1.07410156 5.85402344 1.08570312 6.77054687 1.09765625 7.71484375 C1 10 1 10 0 11 C-0.07205511 12.68608966 -0.08386068 14.37500659 -0.0625 16.0625 C-0.05347656 16.98160156 -0.04445313 17.90070313 -0.03515625 18.84765625 C-0.02355469 19.55792969 -0.01195313 20.26820312 0 21 C-2.5 19.6875 -2.5 19.6875 -5 18 C-5 17.01 -5 16.02 -5 15 C-5.70511719 14.73445313 -6.41023438 14.46890625 -7.13671875 14.1953125 C-10.15567786 12.93501033 -12.95185076 11.46042006 -15.8125 9.875 C-17.27623047 9.06675781 -17.27623047 9.06675781 -18.76953125 8.2421875 C-19.50558594 7.83226563 -20.24164063 7.42234375 -21 7 C-20.67 6.34 -20.34 5.68 -20 5 C-15.05 7.64 -10.1 10.28 -5 13 C-5 11.02 -5 9.04 -5 7 C-3.35 7.66 -1.7 8.32 0 9 C0 6.03 0 3.06 0 0 Z " fill="#2E2E33" transform="translate(91,75)"/>
<path d="M0 0 C0 4.29 0 8.58 0 13 C-4.93050236 11.35649921 -7.89251684 9.93391654 -12 7 C-3.79310345 0 -3.79310345 0 0 0 Z " fill="#D0C5BF" transform="translate(69,88)"/>
<path d="M0 0 C4.61513112 1.31860889 8.09897612 3.21355437 12 6 C10.35 7.65 8.7 9.3 7 11 C2.25 9.125 2.25 9.125 0 8 C0 5.36 0 2.72 0 0 Z " fill="#E9C390" transform="translate(53,50)"/>
<path d="M0 0 C4.455 1.98 4.455 1.98 9 4 C8.67 4.99 8.34 5.98 8 7 C8.804375 7.28875 9.60875 7.5775 10.4375 7.875 C13 9 13 9 14 11 C9.25 9.125 9.25 9.125 7 8 C7 8.66 7 9.32 7 10 C2.25 11.125 2.25 11.125 0 10 C0 6.7 0 3.4 0 0 Z " fill="#DB9D48" transform="translate(96,34)"/>
<path d="M0 0 C0.598125 0.185625 1.19625 0.37125 1.8125 0.5625 C4.16408762 1.22093687 4.16408762 1.22093687 7 0 C9.6875 0.9375 9.6875 0.9375 12 2 C12.66 1.34 13.32 0.68 14 0 C14 3.3 14 6.6 14 10 C9.38 7.69 4.76 5.38 0 3 C0 2.01 0 1.02 0 0 Z " fill="#CC2893" transform="translate(72,90)"/>
<path d="M0 0 C0.81082031 0.50273438 1.62164063 1.00546875 2.45703125 1.5234375 C9.03713834 5.3877023 9.03713834 5.3877023 16.3125 5.0625 C19.03949815 3.52856354 21.53617042 1.92563835 24 0 C21.94654818 4.22871857 20.54435912 6.32853951 16.125 8.25 C11.27026605 9.41513615 7.41426909 8.20713454 3 6 C0 2.68965517 0 2.68965517 0 0 Z " fill="#A8B5C1" transform="translate(27,77)"/>
<path d="M0 0 C3.79049707 1.42749981 7.27122456 3.16236542 10.8125 5.125 C12.27623047 5.93324219 12.27623047 5.93324219 13.76953125 6.7578125 C14.50558594 7.16773438 15.24164063 7.57765625 16 8 C16 11.3 16 14.6 16 18 C14.68 17.34 13.36 16.68 12 16 C12.875 11.25 12.875 11.25 14 9 C13.154375 8.7525 12.30875 8.505 11.4375 8.25 C7.61572526 6.86026373 4.48131937 5.08879162 1 3 C1 4.98 1 6.96 1 9 C0.67 9 0.34 9 0 9 C0 6.03 0 3.06 0 0 Z " fill="#19C6BF" transform="translate(70,25)"/>
<path d="M0 0 C1.98 0.99 3.96 1.98 6 3 C5.67 5.97 5.34 8.94 5 12 C1.2089881 10.55049545 -2.3874638 8.84827434 -6 7 C-4.6875 5 -4.6875 5 -3 3 C-2.01 3 -1.02 3 0 3 C0 2.01 0 1.02 0 0 Z " fill="#10C2B7" transform="translate(107,14)"/>
<path d="M0 0 C0.99 0.33 1.98 0.66 3 1 C3 4.63 3 8.26 3 12 C-0.81433013 10.47426795 -2.96552304 9.47253678 -6 7 C-5.67 5.68 -5.34 4.36 -5 3 C-4.360625 2.87625 -3.72125 2.7525 -3.0625 2.625 C-2.0415625 2.315625 -2.0415625 2.315625 -1 2 C-0.67 1.34 -0.34 0.68 0 0 Z " fill="#3B3D41" transform="translate(61,43)"/>
<path d="M0 0 C1.98 0.99 3.96 1.98 6 3 C6 5.97 6 8.94 6 12 C2.59687262 10.94124926 -0.01353231 9.99097846 -3 8 C-2.34 6.68 -1.68 5.36 -1 4 C0.32 4.33 1.64 4.66 3 5 C1.94729537 3.84188612 1.94729537 3.84188612 0 3 C0 2.01 0 1.02 0 0 Z " fill="#D92DA0" transform="translate(106,25)"/>
<path d="M0 0 C0 1.98 0 3.96 0 6 C-0.68707031 6.26554687 -1.37414063 6.53109375 -2.08203125 6.8046875 C-2.98308594 7.15789062 -3.88414063 7.51109375 -4.8125 7.875 C-6.15248047 8.39707031 -6.15248047 8.39707031 -7.51953125 8.9296875 C-10.17711591 9.98832155 -10.17711591 9.98832155 -13 12 C-13 10.02 -13 8.04 -13 6 C-10.36 5.67 -7.72 5.34 -5 5 C-5 4.01 -5 3.02 -5 2 C-1.125 0 -1.125 0 0 0 Z " fill="#505964" transform="translate(53,84)"/>
<path d="M0 0 C1.32 0.66 2.64 1.32 4 2 C4 4.97 4 7.94 4 11 C1.69 10.34 -0.62 9.68 -3 9 C-2.34 8.67 -1.68 8.34 -1 8 C-2.32 6.35 -3.64 4.7 -5 3 C-2.75 1.375 -2.75 1.375 0 0 Z " fill="#DA9239" transform="translate(87,62)"/>
<path d="M0 0 C2.97 1.65 5.94 3.3 9 5 C7.68 5.33 6.36 5.66 5 6 C5.66 7.65 6.32 9.3 7 11 C6.34 11.66 5.68 12.32 5 13 C2.5 12.125 2.5 12.125 0 10 C-0.47059518 6.56188697 -0.22681737 3.49298752 0 0 Z " fill="#D344A4" transform="translate(70,36)"/>
<path d="M0 0 C4.40114397 0.50298788 6.71195019 2.08772731 10 5 C8.3125 6.5625 8.3125 6.5625 6 8 C2.49389321 7.7434556 0.9721099 6.9814066 -2 5 C-2 4.01 -2 3.02 -2 2 C-1.34 2 -0.68 2 0 2 C0 1.34 0 0.68 0 0 Z " fill="#E4D0E3" transform="translate(55,64)"/>
<path d="M0 0 C1.32 0.66 2.64 1.32 4 2 C4 4.64 4 7.28 4 10 C0.59687262 8.94124926 -2.01353231 7.99097846 -5 6 C-5 5.34 -5 4.68 -5 4 C-3.37373596 2.61767557 -1.7074998 1.28062485 0 0 Z " fill="#DFD0BC" transform="translate(65,56)"/>
<path d="M0 0 C0.061875 0.61875 0.12375 1.2375 0.1875 1.875 C0.81740446 4.27117929 0.81740446 4.27117929 3.5 5.125 C4.7375 5.558125 4.7375 5.558125 6 6 C6.33 6.66 6.66 7.32 7 8 C4.05162229 9.80178638 1.10021321 11.47639094 -2 13 C-2.05416188 11.39620659 -2.09286638 9.79188594 -2.125 8.1875 C-2.14820312 7.29417969 -2.17140625 6.40085937 -2.1953125 5.48046875 C-2 3 -2 3 0 0 Z " fill="#313138" transform="translate(69,42)"/>
<path d="M0 0 C0.99 0.33 1.98 0.66 3 1 C3 6.61 3 12.22 3 18 C2.01 18 1.02 18 0 18 C0 12.06 0 6.12 0 0 Z " fill="#24A39E" transform="translate(64,38)"/>
<path d="M0 0 C0.33 0.99 0.66 1.98 1 3 C2.64551962 3.71727778 4.31422289 4.38325228 6 5 C6.66 5.66 7.32 6.32 8 7 C4.535 8.485 4.535 8.485 1 10 C-0.70884005 8.37660195 -2.37446717 6.70680947 -4 5 C-4 4.34 -4 3.68 -4 3 C-2 1.375 -2 1.375 0 0 Z " fill="#D0D5DA" transform="translate(52,66)"/>
<path d="M0 0 C3.69876091 1.37287342 6.9514476 3.06355453 10.3125 5.125 C11.19550781 5.66382812 12.07851563 6.20265625 12.98828125 6.7578125 C13.65214844 7.16773437 14.31601562 7.57765625 15 8 C14.67 8.99 14.34 9.98 14 11 C7.07 7.04 7.07 7.04 0 3 C0 2.01 0 1.02 0 0 Z " fill="#C987B8" transform="translate(24,107)"/>
<path d="M0 0 C0 2.97 0 5.94 0 9 C-5.75 7.125 -5.75 7.125 -8 6 C-7 3 -7 3 -4 1.3125 C-1 0 -1 0 0 0 Z " fill="#7D8592" transform="translate(18,97)"/>
<path d="M0 0 C6.92307692 2 6.92307692 2 9 5 C9 6.32 9 7.64 9 9 C5.9168649 7.80100302 2.93720508 6.52299523 0 5 C0 3.35 0 1.7 0 0 Z " fill="#46CDCD" transform="translate(77,50)"/>
<path d="M0 0 C0.33 1.32 0.66 2.64 1 4 C0.34 4 -0.32 4 -1 4 C-1.2475 4.61875 -1.495 5.2375 -1.75 5.875 C-3.2442984 8.41530728 -4.24781851 9.02864183 -7 10 C-8.32 10 -9.64 10 -11 10 C-11.33 10.66 -11.66 11.32 -12 12 C-12 11.34 -12 10.68 -12 10 C-12.804375 9.87625 -13.60875 9.7525 -14.4375 9.625 C-15.283125 9.41875 -16.12875 9.2125 -17 9 C-17.33 8.34 -17.66 7.68 -18 7 C-16.96875 7.185625 -15.9375 7.37125 -14.875 7.5625 C-11.23851558 7.97307082 -8.54562991 7.778309 -5 7 C-4.67 6.01 -4.34 5.02 -4 4 C-2.70644173 2.62804426 -1.37701298 1.28817344 0 0 Z " fill="#8F9DAB" transform="translate(51,77)"/>
<path d="M0 0 C2.18135578 2.18135578 4.33781157 4.36379708 6.4375 6.625 C8.94192879 8.9461779 10.77761556 9.9872506 14 11 C14 11.33 14 11.66 14 12 C12.33388095 12.042721 10.66617115 12.04063832 9 12 C8.67 11.67 8.34 11.34 8 11 C5.66702567 10.95907063 3.33294775 10.95758277 1 11 C0.67 7.37 0.34 3.74 0 0 Z " fill="#7A8794" transform="translate(25,76)"/>
<path d="M0 0 C0.66 0 1.32 0 2 0 C1.25749403 4.08378283 0.17076699 8.01939223 -1 12 C-3 10 -5 8 -7 6 C-6.030625 5.38125 -5.06125 4.7625 -4.0625 4.125 C-0.97164638 2.34321154 -0.97164638 2.34321154 0 0 Z " fill="#A09FBA" transform="translate(67,66)"/>
<path d="M0 0 C1.91796875 0.71875 1.91796875 0.71875 4 2 C4.86328125 4.09375 4.86328125 4.09375 5.3125 6.5 C5.47363281 7.2940625 5.63476562 8.088125 5.80078125 8.90625 C6 11 6 11 5 13 C6.65 12.67 8.3 12.34 10 12 C10.33 12.66 10.66 13.32 11 14 C6.25 15.125 6.25 15.125 4 14 C4 11.69 4 9.38 4 7 C3.34 7 2.68 7 2 7 C0.3125 5.1875 0.3125 5.1875 -1 3 C-0.67 2.01 -0.34 1.02 0 0 Z " fill="#646E79" transform="translate(21,74)"/>
<path d="M0 0 C2.475 0.99 2.475 0.99 5 2 C5 4.97 5 7.94 5 11 C2.525 10.01 2.525 10.01 0 9 C0 7.35 0 5.7 0 4 C0.99 4 1.98 4 3 4 C3 3.34 3 2.68 3 2 C2.01 2 1.02 2 0 2 C0 1.34 0 0.68 0 0 Z " fill="#D99338" transform="translate(86,73)"/>
<path d="M0 0 C4.43090471 1.20842856 6.98112756 2.51668565 10 6 C8.68 6 7.36 6 6 6 C4.700625 6.309375 4.700625 6.309375 3.375 6.625 C2.59125 6.74875 1.8075 6.8725 1 7 C0.34 6.34 -0.32 5.68 -1 5 C-0.625 2.375 -0.625 2.375 0 0 Z " fill="#E2B076" transform="translate(77,57)"/>
<path d="M0 0 C1.98 0.66 3.96 1.32 6 2 C6 2.66 6 3.32 6 4 C4.68 3.67 3.36 3.34 2 3 C1.67 4.32 1.34 5.64 1 7 C1.61875 7.103125 2.2375 7.20625 2.875 7.3125 C5 8 5 8 7 11 C5 12 5 12 2.375 11.125 C0 9 0 9 -0.32421875 6.79296875 C-0.31343335 4.51005804 -0.21437379 2.27236221 0 0 Z " fill="#21C3BE" transform="translate(70,71)"/>
<path d="M0 0 C0.33 0 0.66 0 1 0 C1 2.31 1 4.62 1 7 C0.34 7 -0.32 7 -1 7 C-1 9.64 -1 12.28 -1 15 C-1.99 14.67 -2.98 14.34 -4 14 C-4 11.03 -4 8.06 -4 5 C-3.01 5.495 -3.01 5.495 -2 6 C-1.34 4.02 -0.68 2.04 0 0 Z " fill="#768B99" transform="translate(68,70)"/>
<path d="M0 0 C-0.56371414 3.26954202 -1.49962266 4.82575883 -4 7 C-6.475 6.01 -6.475 6.01 -9 5 C-9 4.34 -9 3.68 -9 3 C-5.63316085 0.56839395 -4.26649636 0 0 0 Z " fill="#6C727C" transform="translate(25,66)"/>
<path d="M0 0 C3.3 1.65 6.6 3.3 10 5 C10 5.99 10 6.98 10 8 C5.38486888 6.68139111 1.90102388 4.78644563 -2 2 C-1.34 1.34 -0.68 0.68 0 0 Z " fill="#A8B0B8" transform="translate(59,93)"/>
<path d="M0 0 C0.66 0 1.32 0 2 0 C2 3.63 2 7.26 2 11 C-3.625 9.875 -3.625 9.875 -6 7 C-3.03 7.495 -3.03 7.495 0 8 C0 5.36 0 2.72 0 0 Z " fill="#646870" transform="translate(67,77)"/>
<path d="M0 0 C1.32 1.65 2.64 3.3 4 5 C3.67 5.66 3.34 6.32 3 7 C2.34 7 1.68 7 1 7 C0.67 9.64 0.34 12.28 0 15 C-0.33 15 -0.66 15 -1 15 C-1.16918268 13.41693353 -1.33523936 11.83353281 -1.5 10.25 C-1.5928125 9.36828125 -1.685625 8.4865625 -1.78125 7.578125 C-2 5 -2 5 -2 1 C-1.34 0.67 -0.68 0.34 0 0 Z " fill="#73787F" transform="translate(70,53)"/>
<path d="M0 0 C4.30764815 1.56641751 8.06171464 3.68336156 12 6 C8.88109857 7.55945072 6.34501482 6.64552918 3 6 C2.01 5.34 1.02 4.68 0 4 C0 2.68 0 1.36 0 0 Z " fill="#96E4DE" transform="translate(98,12)"/>
<path d="M0 0 C4.61513112 1.31860889 8.09897612 3.21355437 12 6 C11.01 6.495 11.01 6.495 10 7 C7.375 5.5625 7.375 5.5625 5 4 C4.67 4.66 4.34 5.32 4 6 C2.68 5.34 1.36 4.68 0 4 C0 2.68 0 1.36 0 0 Z " fill="#EFD5B2" transform="translate(98,38)"/>
<path d="M0 0 C1.64936913 0.78427352 3.29441127 1.57765259 4.9375 2.375 C5.85402344 2.81585937 6.77054687 3.25671875 7.71484375 3.7109375 C10 5 10 5 11 7 C10.4225 6.835 9.845 6.67 9.25 6.5 C6.73335631 5.85537969 6.73335631 5.85537969 3 6 C2.01 5.67 1.02 5.34 0 5 C0 3.35 0 1.7 0 0 Z " fill="#9BE8E3" transform="translate(72,28)"/>
<path d="M0 0 C4.50802601 1.25805377 7.4912812 2.90407165 11 6 C8.6875 6.6875 8.6875 6.6875 6 7 C4.375 5.625 4.375 5.625 3 4 C2.01 3.67 1.02 3.34 0 3 C0 2.01 0 1.02 0 0 Z " fill="#E1B16F" transform="translate(53,50)"/>
<path d="M0 0 C0.66 0.33 1.32 0.66 2 1 C2 3.97 2 6.94 2 10 C-0.475 9.01 -0.475 9.01 -3 8 C-2.5359375 7.13375 -2.5359375 7.13375 -2.0625 6.25 C-1.07416636 4.15705816 -0.4831387 2.25464725 0 0 Z " fill="#DB72CC" transform="translate(84,44)"/>
<path d="M0 0 C3.59391114 1.33488128 6.75490696 2.96022723 10 5 C6.89021812 6.55489094 5.08431311 6.02645117 1.8125 5 C0.884375 4.67 -0.04375 4.34 -1 4 C-0.67 2.68 -0.34 1.36 0 0 Z " fill="#9BE4E0" transform="translate(72,74)"/>
<path d="M0 0 C0 1.65 0 3.3 0 5 C-1.41377782 5.36552803 -2.83120576 5.71695495 -4.25 6.0625 C-5.03890625 6.25972656 -5.8278125 6.45695312 -6.640625 6.66015625 C-9.10394822 7.01497267 -10.65604132 6.76877544 -13 6 C-10.36 5.67 -7.72 5.34 -5 5 C-5 4.01 -5 3.02 -5 2 C-1.125 0 -1.125 0 0 0 Z " fill="#5F6874" transform="translate(53,84)"/>
<path d="M0 0 C5 2 5 2 8 4 C7.67 4.66 7.34 5.32 7 6 C5.02 5.01 3.04 4.02 1 3 C1 5.97 1 8.94 1 12 C0.67 12 0.34 12 0 12 C0 8.04 0 4.08 0 0 Z " fill="#3E4C4C" transform="translate(69,68)"/>
<path d="M0 0 C1.9375 1.25 1.9375 1.25 3.9375 4.25 C2.9475 4.58 1.9575 4.91 0.9375 5.25 C0.9375 4.59 0.9375 3.93 0.9375 3.25 C-1.3725 2.92 -3.6825 2.59 -6.0625 2.25 C-4.60641092 -0.66217816 -3.02260433 -1.09912885 0 0 Z " fill="#B7BFC5" transform="translate(46.0625,64.75)"/>
<path d="M0 0 C3.96 1.98 3.96 1.98 8 4 C7.01 4.495 7.01 4.495 6 5 C6 5.66 6 6.32 6 7 C4.02 6.34 2.04 5.68 0 5 C0 3.35 0 1.7 0 0 Z " fill="#EB9DD1" transform="translate(98,23)"/>
<path d="M0 0 C-0.66 2.31 -1.32 4.62 -2 7 C-4.475 6.01 -4.475 6.01 -7 5 C-7 4.01 -7 3.02 -7 2 C-4 0 -4 0 0 0 Z " fill="#5FCDD1" transform="translate(84,34)"/>
<path d="M0 0 C2.81080836 1.14726872 4.1782406 1.94701628 6.0625 4.25 C4.0825 3.59 2.1025 2.93 0.0625 2.25 C-0.2675 2.91 -0.5975 3.57 -0.9375 4.25 C-2.2575 3.59 -3.5775 2.93 -4.9375 2.25 C-4.9375 1.59 -4.9375 0.93 -4.9375 0.25 C-2.9375 -0.75 -2.9375 -0.75 0 0 Z " fill="#E5A5D0" transform="translate(76.9375,87.75)"/>
<path d="M0 0 C3.0831351 1.19899698 6.06279492 2.47700477 9 4 C9 4.99 9 5.98 9 7 C6 7 6 7 4.5625 5.6875 C4.046875 5.130625 3.53125 4.57375 3 4 C1.68036291 2.98199424 0.34990354 1.97751635 -1 1 C-0.67 0.67 -0.34 0.34 0 0 Z " fill="#43CDC4" transform="translate(76,74)"/>
<path d="M0 0 C2.03144641 0.93446535 4.03533587 1.93224776 6 3 C4.68 3.33 3.36 3.66 2 4 C2.33 4.66 2.66 5.32 3 6 C1.68 6 0.36 6 -1 6 C-1.33 4.35 -1.66 2.7 -2 1 C-1.34 0.67 -0.68 0.34 0 0 Z " fill="#E166B9" transform="translate(73,38)"/>
<path d="M0 0 C0.33 0.99 0.66 1.98 1 3 C-0.25 4.5 -0.25 4.5 -2 6 C-3.32 6 -4.64 6 -6 6 C-6 5.01 -6 4.02 -6 3 C-4.02 2.01 -2.04 1.02 0 0 Z " fill="#848F9A" transform="translate(58,73)"/>
<path d="M0 0 C2.02045442 0.60183749 4.02111039 1.27306096 6 2 C6.33 2.66 6.66 3.32 7 4 C6.34 4 5.68 4 5 4 C4.67 4.66 4.34 5.32 4 6 C2.68 5.34 1.36 4.68 0 4 C0 2.68 0 1.36 0 0 Z " fill="#F0D8BB" transform="translate(72,63)"/>
<path d="M0 0 C4.99911924 0.47610659 7.97832683 2.03162219 12 5 C11.67 5.66 11.34 6.32 11 7 C7.37 5.02 3.74 3.04 0 1 C0 0.67 0 0.34 0 0 Z " fill="#412E44" transform="translate(74,38)"/>
<path d="M0 0 C-1.28813342 0.83878455 -2.58063256 1.67086783 -3.875 2.5 C-4.59429687 2.9640625 -5.31359375 3.428125 -6.0546875 3.90625 C-8 5 -8 5 -10 5 C-10 4.01 -10 3.02 -10 2 C-3.375 -1.125 -3.375 -1.125 0 0 Z " fill="#BEC5CD" transform="translate(39,68)"/>
<path d="M0 0 C0.66 0.99 1.32 1.98 2 3 C1.01 3.33 0.02 3.66 -1 4 C-1.33 4.66 -1.66 5.32 -2 6 C-2.66 5.67 -3.32 5.34 -4 5 C-4.625 2.9375 -4.625 2.9375 -5 1 C-3.35 0.67 -1.7 0.34 0 0 Z " fill="#666D77" transform="translate(33,58)"/>
<path d="M0 0 C3.0831351 1.19899698 6.06279492 2.47700477 9 4 C8.67 4.66 8.34 5.32 8 6 C5.36 5.34 2.72 4.68 0 4 C0 2.66666667 0 1.33333333 0 0 Z " fill="#F1CBE8" transform="translate(74,41)"/>
<path d="M0 0 C1.32 0.99 2.64 1.98 4 3 C3.01 3.33 2.02 3.66 1 4 C0.34 3.67 -0.32 3.34 -1 3 C-0.67 2.01 -0.34 1.02 0 0 Z M4 0 C6.97 0.495 6.97 0.495 10 1 C9.67 1.66 9.34 2.32 9 3 C7.35 2.67 5.7 2.34 4 2 C4 1.34 4 0.68 4 0 Z " fill="#E363B9" transform="translate(100,28)"/>
<path d="M0 0 C1.98 0.99 1.98 0.99 4 2 C3.01 2 2.02 2 1 2 C1.57452746 5.93075644 1.57452746 5.93075644 4 9 C2.68 9 1.36 9 0 9 C0 6.03 0 3.06 0 0 Z " fill="#C92C95" transform="translate(96,20)"/>
<path d="M0 0 C2.97 0.495 2.97 0.495 6 1 C6.33 2.32 6.66 3.64 7 5 C1.125 2.25 1.125 2.25 0 0 Z " fill="#DC9B47" transform="translate(70,67)"/>
<path d="M0 0 C0.99 0.33 1.98 0.66 3 1 C3 1.66 3 2.32 3 3 C2.34 3 1.68 3 1 3 C0.67 4.32 0.34 5.64 0 7 C-1 6 -1 6 -1.125 3.5 C-1 1 -1 1 0 0 Z " fill="#DA50AB" transform="translate(71,85)"/>
<path d="M0 0 C2.91517292 1.07401108 4.77810176 1.77810176 7 4 C4.66666667 4 2.33333333 4 0 4 C0 2.68 0 1.36 0 0 Z " fill="#CF399C" transform="translate(70,82)"/>
<path d="M0 0 C0.66 0 1.32 0 2 0 C2.66 1.65 3.32 3.3 4 5 C3.01 5.33 2.02 5.66 1 6 C0.34 5.34 -0.32 4.68 -1 4 C-0.625 1.875 -0.625 1.875 0 0 Z " fill="#684B62" transform="translate(56,46)"/>
</svg>
